# xmcd
#
# Track frame offsets: 
#        150
#        21562
#        43902
#
# Disc length: 912 seconds
#
# Revision: 0
# Processed by: cddbd v1.5.2PL0 Copyright (c) Steve Scherf et al.
# Submitted via: ExactAudioCopyFreeDBPlugin 1.0
#
DISCID=25038e03
DTITLE=みずさわゆうき - scenery in one's mind's eye
DYEAR=2016
DGENRE=Vocal
TTITLE0=心象風景
TTITLE1=旗手の乙女
TTITLE2=キセキ
EXTD=
EXTT0=
EXTT1=
EXTT2=
PLAYORDER=
